# xmcd CD database file
#
# Track frame offsets:
#	150
#	8108
#	25033
#	42963
#	72362
#	107768
#	128962
#	151400
#	175004
#	216395
#
# Disc length: 3199 seconds
#
# Revision: 5
# Processed by: cddbd v1.5.2PL0 Copyright (c) Steve Scherf et al.
# Submitted via: CDex 1.70beta2
#
DISCID=820c7d0a
DTITLE=Black Country Communion - Live Over Europe - CD 1
DYEAR=2012
DGENRE=Retro
TTITLE0=Revolution Of The Machines
TTITLE1=Black Country
TTITLE2=One Last Soul
TTITLE3=Crossfire
TTITLE4=Save Me
TTITLE5=The Battle For Hadrian's Wall
TTITLE6=Beggarman
TTITLE7=Faithless
TTITLE8=Song Of Yesterday
TTITLE9=I Can Feel Your Spirit
EXTD=YEAR: 2012
EXTT0=
EXTT1=
EXTT2=
EXTT3=
EXTT4=
EXTT5=
EXTT6=
EXTT7=
EXTT8=
EXTT9=
PLAYORDER=
